<?xml version="1.0" encoding="UTF-8"?>
<!DOCTYPE svg
PUBLIC "-//W3C//DTD SVG 1.1//EN"
       "http://www.w3.org/Graphics/SVG/1.1/DTD/svg11.dtd">
<svg viewBox="41 4 1076 561" width="1035px" height="557px" xmlns="http://www.w3.org/2000/svg" version="1.1">
   <line x1="953" y1="313" x2="943" y2="313" style="stroke:#c00;stroke-width:1;"/>
   <line x1="732" y1="290" x2="722" y2="290" style="stroke:#c00;stroke-width:1;"/>
   <line x1="943" y1="313" x2="732" y2="290" style="stroke:#c00;stroke-width:1;"/>
   <line x1="945.5" y1="313" x2="949.03553390593" y2="316.53553390593" style="stroke:#c00;stroke-width:2;"/>
   <line x1="945.5" y1="313" x2="949.03553390593" y2="309.46446609407" style="stroke:#c00;stroke-width:2;"/>
   <line x1="727" y1="290" x2="730.53553390593" y2="293.53553390593" style="stroke:#c00;stroke-width:2;"/>
   <line x1="727" y1="290" x2="730.53553390593" y2="286.46446609407" style="stroke:#c00;stroke-width:2;"/>
   <line x1="165" y1="536" x2="175" y2="536" style="stroke:#333;stroke-width:1;"/>
   <line x1="360" y1="106" x2="370" y2="106" style="stroke:#333;stroke-width:1;"/>
   <line x1="175" y1="536" x2="360" y2="106" style="stroke:#333;stroke-width:1;"/>
   <line x1="172.5" y1="536" x2="168.96446609407" y2="539.53553390593" style="stroke:#333;stroke-width:2;"/>
   <line x1="172.5" y1="536" x2="168.96446609407" y2="532.46446609407" style="stroke:#333;stroke-width:2;"/>
   <line x1="365" y1="106" x2="361.46446609407" y2="109.53553390593" style="stroke:#333;stroke-width:2;"/>
   <line x1="365" y1="106" x2="361.46446609407" y2="102.46446609407" style="stroke:#333;stroke-width:2;"/>
   <line x1="177" y1="229" x2="187" y2="229" style="stroke:#cb0;stroke-width:1;"/>
   <line x1="360" y1="106" x2="370" y2="106" style="stroke:#cb0;stroke-width:1;"/>
   <line x1="187" y1="229" x2="360" y2="106" style="stroke:#cb0;stroke-width:1;"/>
   <line x1="184.5" y1="229" x2="180.96446609407" y2="232.53553390593" style="stroke:#cb0;stroke-width:2;"/>
   <line x1="184.5" y1="229" x2="180.96446609407" y2="225.46446609407" style="stroke:#cb0;stroke-width:2;"/>
   <line x1="365" y1="106" x2="361.46446609407" y2="109.53553390593" style="stroke:#cb0;stroke-width:2;"/>
   <line x1="365" y1="106" x2="361.46446609407" y2="102.46446609407" style="stroke:#cb0;stroke-width:2;"/>
   <line x1="489" y1="146" x2="499" y2="146" style="stroke:#b0b;stroke-width:1;"/>
   <line x1="637" y1="133" x2="647" y2="133" style="stroke:#b0b;stroke-width:1;"/>
   <line x1="499" y1="146" x2="637" y2="133" style="stroke:#b0b;stroke-width:1;"/>
   <line x1="496.5" y1="146" x2="492.96446609407" y2="149.53553390593" style="stroke:#b0b;stroke-width:2;"/>
   <line x1="496.5" y1="146" x2="492.96446609407" y2="142.46446609407" style="stroke:#b0b;stroke-width:2;"/>
   <line x1="642" y1="133" x2="638.46446609407" y2="136.53553390593" style="stroke:#b0b;stroke-width:2;"/>
   <line x1="642" y1="133" x2="638.46446609407" y2="129.46446609407" style="stroke:#b0b;stroke-width:2;"/>
   <line x1="489" y1="326" x2="499" y2="326" style="stroke:#0b0;stroke-width:1;"/>
   <line x1="645" y1="290" x2="655" y2="290" style="stroke:#0b0;stroke-width:1;"/>
   <line x1="499" y1="326" x2="645" y2="290" style="stroke:#0b0;stroke-width:1;"/>
   <line x1="496.5" y1="326" x2="492.96446609407" y2="329.53553390593" style="stroke:#0b0;stroke-width:2;"/>
   <line x1="496.5" y1="326" x2="492.96446609407" y2="322.46446609407" style="stroke:#0b0;stroke-width:2;"/>
   <line x1="650" y1="290" x2="646.46446609407" y2="293.53553390593" style="stroke:#0b0;stroke-width:2;"/>
   <line x1="650" y1="290" x2="646.46446609407" y2="286.46446609407" style="stroke:#0b0;stroke-width:2;"/>
   <rect width="108" height="20" x="953" y="283" style="fill:#007;stroke:black;"/>
   <text width="108" height="20" x="958" y="297" style="fill:#fff;" font-family="Arial" font-size="16px"> administrators</text>
   <rect width="108" height="20" x="953" y="303" style="fill:#aea;stroke:black;"/>
   <text width="108" height="20" x="958" y="317" style="fill:black;" font-family="Arial" font-size="16px">uid</text>
   <rect width="104" height="20" x="61" y="346" style="fill:#007;stroke:black;"/>
   <text width="104" height="20" x="66" y="360" style="fill:#fff;" font-family="Arial" font-size="16px"> awards</text>
   <rect width="104" height="20" x="61" y="366" style="fill:#aea;stroke:black;"/>
   <text width="104" height="20" x="66" y="380" style="fill:black;" font-family="Arial" font-size="16px">award_id</text>
   <rect width="104" height="20" x="61" y="386" style="fill:none;stroke:black;"/>
   <text width="104" height="20" x="66" y="400" style="fill:black;" font-family="Arial" font-size="16px">address</text>
   <rect width="104" height="20" x="61" y="406" style="fill:none;stroke:black;"/>
   <text width="104" height="20" x="66" y="420" style="fill:black;" font-family="Arial" font-size="16px">description</text>
   <rect width="104" height="20" x="61" y="426" style="fill:none;stroke:black;"/>
   <text width="104" height="20" x="66" y="440" style="fill:black;" font-family="Arial" font-size="16px">lat</text>
   <rect width="104" height="20" x="61" y="446" style="fill:none;stroke:black;"/>
   <text width="104" height="20" x="66" y="460" style="fill:black;" font-family="Arial" font-size="16px">lon</text>
   <rect width="104" height="20" x="61" y="466" style="fill:none;stroke:black;"/>
   <text width="104" height="20" x="66" y="480" style="fill:black;" font-family="Arial" font-size="16px">name</text>
   <rect width="104" height="20" x="61" y="486" style="fill:none;stroke:black;"/>
   <text width="104" height="20" x="66" y="500" style="fill:black;" font-family="Arial" font-size="16px">redeem_code</text>
   <rect width="104" height="20" x="61" y="506" style="fill:none;stroke:black;"/>
   <text width="104" height="20" x="66" y="520" style="fill:black;" font-family="Arial" font-size="16px">award_value</text>
   <rect width="104" height="20" x="61" y="526" style="fill:none;stroke:black;"/>
   <text width="104" height="20" x="66" y="540" style="fill:black;" font-family="Arial" font-size="16px">hunt_id</text>
   <rect width="121" height="20" x="56" y="19" style="fill:#007;stroke:black;"/>
   <text width="121" height="20" x="61" y="33" style="fill:#fff;" font-family="Arial" font-size="16px"> badges</text>
   <rect width="121" height="20" x="56" y="39" style="fill:#aea;stroke:black;"/>
   <text width="121" height="20" x="61" y="53" style="fill:black;" font-family="Arial" font-size="16px">badge_id</text>
   <rect width="121" height="20" x="56" y="59" style="fill:none;stroke:black;"/>
   <text width="121" height="20" x="61" y="73" style="fill:black;" font-family="Arial" font-size="16px">description</text>
   <rect width="121" height="20" x="56" y="79" style="fill:none;stroke:black;"/>
   <text width="121" height="20" x="61" y="93" style="fill:black;" font-family="Arial" font-size="16px">icon</text>
   <rect width="121" height="20" x="56" y="99" style="fill:none;stroke:black;"/>
   <text width="121" height="20" x="61" y="113" style="fill:black;" font-family="Arial" font-size="16px">image</text>
   <rect width="121" height="20" x="56" y="119" style="fill:none;stroke:black;"/>
   <text width="121" height="20" x="61" y="133" style="fill:black;" font-family="Arial" font-size="16px">landmark_name</text>
   <rect width="121" height="20" x="56" y="139" style="fill:none;stroke:black;"/>
   <text width="121" height="20" x="61" y="153" style="fill:black;" font-family="Arial" font-size="16px">lat</text>
   <rect width="121" height="20" x="56" y="159" style="fill:none;stroke:black;"/>
   <text width="121" height="20" x="61" y="173" style="fill:black;" font-family="Arial" font-size="16px">lon</text>
   <rect width="121" height="20" x="56" y="179" style="fill:none;stroke:black;"/>
   <text width="121" height="20" x="61" y="193" style="fill:black;" font-family="Arial" font-size="16px">name</text>
   <rect width="121" height="20" x="56" y="199" style="fill:none;stroke:black;"/>
   <text width="121" height="20" x="61" y="213" style="fill:black;" font-family="Arial" font-size="16px">qr_code</text>
   <rect width="121" height="20" x="56" y="219" style="fill:none;stroke:black;"/>
   <text width="121" height="20" x="61" y="233" style="fill:black;" font-family="Arial" font-size="16px">hunt_id</text>
   <rect width="67" height="20" x="655" y="260" style="fill:#007;stroke:black;"/>
   <text width="67" height="20" x="660" y="274" style="fill:#fff;" font-family="Arial" font-size="16px"> creators</text>
   <rect width="67" height="20" x="655" y="280" style="fill:#aea;stroke:black;"/>
   <text width="67" height="20" x="660" y="294" style="fill:black;" font-family="Arial" font-size="16px">uid</text>
   <rect width="67" height="20" x="655" y="300" style="fill:none;stroke:black;"/>
   <text width="67" height="20" x="660" y="314" style="fill:black;" font-family="Arial" font-size="16px">email</text>
   <rect width="67" height="20" x="655" y="320" style="fill:none;stroke:black;"/>
   <text width="67" height="20" x="660" y="334" style="fill:black;" font-family="Arial" font-size="16px">is_valid</text>
   <rect width="67" height="20" x="655" y="340" style="fill:none;stroke:black;"/>
   <text width="67" height="20" x="660" y="354" style="fill:black;" font-family="Arial" font-size="16px">level_id</text>
   <rect width="119" height="20" x="370" y="76" style="fill:#007;stroke:black;"/>
   <text width="119" height="20" x="375" y="90" style="fill:#fff;" font-family="Arial" font-size="16px"> hunts</text>
   <rect width="119" height="20" x="370" y="96" style="fill:#aea;stroke:black;"/>
   <text width="119" height="20" x="375" y="110" style="fill:black;" font-family="Arial" font-size="16px">hunt_id</text>
   <rect width="119" height="20" x="370" y="116" style="fill:none;stroke:black;"/>
   <text width="119" height="20" x="375" y="130" style="fill:black;" font-family="Arial" font-size="16px">abbreviation</text>
   <rect width="119" height="20" x="370" y="136" style="fill:none;stroke:black;"/>
   <text width="119" height="20" x="375" y="150" style="fill:black;" font-family="Arial" font-size="16px">approval_status</text>
   <rect width="119" height="20" x="370" y="156" style="fill:none;stroke:black;"/>
   <text width="119" height="20" x="375" y="170" style="fill:black;" font-family="Arial" font-size="16px">audience</text>
   <rect width="119" height="20" x="370" y="176" style="fill:none;stroke:black;"/>
   <text width="119" height="20" x="375" y="190" style="fill:black;" font-family="Arial" font-size="16px">date_end</text>
   <rect width="119" height="20" x="370" y="196" style="fill:none;stroke:black;"/>
   <text width="119" height="20" x="375" y="210" style="fill:black;" font-family="Arial" font-size="16px">date_start</text>
   <rect width="119" height="20" x="370" y="216" style="fill:none;stroke:black;"/>
   <text width="119" height="20" x="375" y="230" style="fill:black;" font-family="Arial" font-size="16px">name</text>
   <rect width="119" height="20" x="370" y="236" style="fill:none;stroke:black;"/>
   <text width="119" height="20" x="375" y="250" style="fill:black;" font-family="Arial" font-size="16px">ordered</text>
   <rect width="119" height="20" x="370" y="256" style="fill:none;stroke:black;"/>
   <text width="119" height="20" x="375" y="270" style="fill:black;" font-family="Arial" font-size="16px">summary</text>
   <rect width="119" height="20" x="370" y="276" style="fill:none;stroke:black;"/>
   <text width="119" height="20" x="375" y="290" style="fill:black;" font-family="Arial" font-size="16px">sponsor</text>
   <rect width="119" height="20" x="370" y="296" style="fill:none;stroke:black;"/>
   <text width="119" height="20" x="375" y="310" style="fill:black;" font-family="Arial" font-size="16px">super_badge</text>
   <rect width="119" height="20" x="370" y="316" style="fill:none;stroke:black;"/>
   <text width="119" height="20" x="375" y="330" style="fill:black;" font-family="Arial" font-size="16px">uid</text>
   <rect width="119" height="20" x="370" y="336" style="fill:none;stroke:black;"/>
   <text width="119" height="20" x="375" y="350" style="fill:black;" font-family="Arial" font-size="16px">city</text>
   <rect width="119" height="20" x="370" y="356" style="fill:none;stroke:black;"/>
   <text width="119" height="20" x="375" y="370" style="fill:black;" font-family="Arial" font-size="16px">state</text>
   <rect width="119" height="20" x="370" y="376" style="fill:none;stroke:black;"/>
   <text width="119" height="20" x="375" y="390" style="fill:black;" font-family="Arial" font-size="16px">zipcode</text>
   <rect width="119" height="20" x="647" y="103" style="fill:#007;stroke:black;"/>
   <text width="119" height="20" x="652" y="117" style="fill:#fff;" font-family="Arial" font-size="16px"> hunt_status</text>
   <rect width="119" height="20" x="647" y="123" style="fill:#aea;stroke:black;"/>
   <text width="119" height="20" x="652" y="137" style="fill:black;" font-family="Arial" font-size="16px">approval_status</text>
</svg>
